<svg focusable="false" enable-background="new 0 0 24 24" height="24" viewBox="0 0 24 24" width="24" xmlns="http://www.w3.org/2000/svg"><path d="m17 10.026v-4.526c0-.133-.053-.26-.146-.354l-5-5c-.094-.093-.222-.146-.354-.146h-11c-.276 0-.5.224-.5.5v21c0 .276.224.5.5.5h11.014c-.946-1.256-1.514-2.811-1.514-4.5 0-3.967 3.098-7.216 7-7.474zm-5.5-9.526 5 5h-5z"/><path d="m17.5 11c-3.584 0-6.5 2.915-6.5 6.5 0 3.584 2.916 6.5 6.5 6.5s6.5-2.916 6.5-6.5c0-3.585-2.916-6.5-6.5-6.5zm2.536 7.398-2.182 2.182c-.195.195-.512.195-.707 0l-2.182-2.182c-.195-.195-.195-.512 0-.707s.512-.195.707 0l1.328 1.329v-4.249c0-.276.224-.5.5-.5s.5.224.5.5v4.249l1.328-1.328c.196-.195.512-.195.708 0s.195.511 0 .706z"/></svg>
