<svg focusable="false" enable-background="new 0 0 64 64" viewBox="0 0 64 64" xmlns="http://www.w3.org/2000/svg"><g fill="#6a6a6a"><path d="m27.4 40.8-7.4 9.9c-1 1.9.9 2.9 1.1 3v2.4h-11.1c-.4 0-.8-.3-.8-.8v-9h.1c1.3-.1 2.1-.9 2.1-2.1v-7.7c0-.4-.1-.8-.4-1.1-.4-.6-.8-.9-1.7-.9 0 0 0 0-.1 0v-10.6h11.9v2.4c-.2.1-2.4 1-1.6 2.8z"/><path d="m54.8 34.5c-.9 0-1.3.3-1.8.9-.2.3-.4.7-.4 1.1v7.7c0 1.2.7 2.1 2.1 2.1h.1v9c0 .4-.3.8-.8.8h-11.1v-2.4c.2-.1 2.2-1.1 1.1-3l-7.5-9.9 7.9-11.6c.8-1.8-1.5-2.8-1.6-2.8v-2.4h11.9z"/><path d="m54.8 19.7h-45.6v-9.4c0-1.3 1-2.4 2.2-2.6h6.2v5.6h9.2c.5 0 .7-.2.7-.7v-4.9h9.1v4.9c0 .5.2.7.7.7h9.1v-5.5h5.9c1.4 0 2.5 1.2 2.5 2.6z"/></g></svg>
